<?xml version="1.0" encoding="UTF-8" standalone="no"?>
<!-- Created with Inkscape (http://www.inkscape.org/) -->

<svg
   xmlns:dc="http://purl.org/dc/elements/1.1/"
   xmlns:cc="http://creativecommons.org/ns#"
   xmlns:rdf="http://www.w3.org/1999/02/22-rdf-syntax-ns#"
   xmlns:svg="http://www.w3.org/2000/svg"
   xmlns="http://www.w3.org/2000/svg"
   xmlns:sodipodi="http://sodipodi.sourceforge.net/DTD/sodipodi-0.dtd"
   xmlns:inkscape="http://www.inkscape.org/namespaces/inkscape"
   id="svg8565"
   version="1.1"
   inkscape:version="0.92.1 r15371"
   width="161"
   height="66"
   viewBox="0 0 161 66"
   sodipodi:docname="DESC_NA.svg">
  <metadata
     id="metadata8571">
    <rdf:RDF>
      <cc:Work
         rdf:about="">
        <dc:format>image/svg+xml</dc:format>
        <dc:type
           rdf:resource="http://purl.org/dc/dcmitype/StillImage" />
        <dc:title></dc:title>
      </cc:Work>
    </rdf:RDF>
  </metadata>
  <defs
     id="defs8569">
    <filter
       inkscape:label="Pixellize"
       inkscape:menu="Pixel tools"
       inkscape:menu-tooltip="Reduce or remove antialiasing around shapes"
       style="color-interpolation-filters:sRGB;"
       id="filter9147">
      <feColorMatrix
         values="1 0 0 0 0 0 1 0 0 0 0 0 1 0 0 0 0 0 1000 -500 "
         id="feColorMatrix9149" />
    </filter>
  </defs>
  <sodipodi:namedview
     pagecolor="#ffffff"
     bordercolor="#666666"
     borderopacity="1"
     objecttolerance="10"
     gridtolerance="10"
     guidetolerance="10"
     inkscape:pageopacity="0"
     inkscape:pageshadow="2"
     inkscape:window-width="1304"
     inkscape:window-height="745"
     id="namedview8567"
     showgrid="false"
     inkscape:zoom="2.0310559"
     inkscape:cx="0.49235472"
     inkscape:cy="20.558819"
     inkscape:window-x="54"
     inkscape:window-y="-8"
     inkscape:window-maximized="1"
     inkscape:current-layer="svg8565" />
  <g
     id="g1434"
     style="stroke:#24df00;stroke-opacity:1;stroke-width:0.8;stroke-miterlimit:4;stroke-dasharray:none">
    <g
       transform="matrix(0.17025169,0.05415585,-0.05438856,0.19028736,72.259533,29.072917)"
       style="filter:url(#filter9147);stroke:#24df00;stroke-opacity:1;stroke-width:4.25542731;stroke-miterlimit:4;stroke-dasharray:none"
       id="g9115">
      <path
         inkscape:connector-curvature="0"
         id="path9119"
         d="M 50.488708,17.765145 C 50.235628,17.069315 49.909636,11.55 49.764281,5.5 L 49.5,-5.5 27.5,-6 c -29.27599,-0.665363 -29.27599,-2.334637 0,-3 l 22,-0.5 0.5,-12 0.5,-12 H 80 109.5 l 0.5,12 0.5,12 23,0.5 c 14.33333,0.311594 23,0.876812 23,1.5 0,0.623188 -8.66667,1.188406 -23,1.5 l -23,0.5 -0.5,12 -0.5,12 -29.275573,0.265145 c -22.891126,0.207322 -29.375922,-0.01076 -29.735719,-1 z M 106.5,-7.5 v -23 H 80 53.5 l -0.270133,21.976343 c -0.148573,12.086988 -0.04732,22.556982 0.225005,23.266652 0.390623,1.017946 6.041372,1.234023 26.770133,1.023657 L 106.5,15.5 Z M 71.387869,7.419099 C 67.755901,5.627278 65.44526,1.888014 66.412468,-0.63249 c 0.578111,-1.506535 1.24489,-1.147483 4.517352,2.432539 4.431936,4.848468 8.164274,5.486977 12.435321,2.127371 4.702323,-3.698848 2.555341,-8.025874 -4.996866,-10.070678 -9.900149,-2.680523 -13.567021,-6.548499 -11.329356,-11.9507 C 70.650888,-26.814023 89,-25.41389 89,-16.418213 89,-14.097721 86.568713,-14.796954 83.5,-18 c -3.2198,-3.360747 -6.818438,-3.866113 -10.277494,-1.443296 -4.938398,3.458989 -2.055384,7.009181 8.009762,9.863356 C 87.961911,-7.671614 91,-4.847451 91,-0.5 91,7.118564 79.879993,11.608664 71.387869,7.419099 Z"
         style="fill:#b5b5b5;stroke:#24df00;stroke-opacity:1;stroke-width:4.25542731;stroke-miterlimit:4;stroke-dasharray:none" />
    </g>
    <path
       inkscape:connector-curvature="0"
       id="path9151"
       d="M 80.838668,35.655059 C 80.355372,35.468166 79.940644,35.274182 79.91705,35.224 c -0.02355,-0.05021 0.201153,-1.082523 0.499407,-2.294109 0.298275,-1.211583 0.539029,-2.208563 0.535008,-2.215509 -0.0041,-0.007 -1.501445,-0.544027 -3.327608,-1.193502 -3.357352,-1.194057 -4.146228,-1.515254 -3.910475,-1.592183 0.119612,-0.03908 2.309496,0.532497 5.904656,1.541043 l 1.578654,0.442858 0.334599,-0.981622 c 0.184032,-0.539894 0.524153,-1.553736 0.755801,-2.252989 l 0.421192,-1.271366 5.00921,1.59339 5.009209,1.593399 -0.341842,1.398812 c -0.187964,0.769362 -0.435892,1.812478 -0.550873,2.318059 l -0.209074,0.919233 1.631559,0.57838 c 3.710693,1.315437 5.898117,2.134271 5.978457,2.237968 0.160374,0.206979 -0.681066,0.0083 -4.259487,-1.005585 -1.954136,-0.553689 -3.563514,-1.002395 -3.5764,-0.997128 -0.01284,0.0052 -0.353807,1.005577 -0.757641,2.222902 -0.403828,1.217324 -0.74174,2.216202 -0.750927,2.21972 -0.07271,0.02783 -8.36834,-2.566392 -9.051846,-2.830704 z m 6.024879,1.294542 2.704291,0.85971 1.23011,-4.386902 1.230111,-4.386885 -4.498629,-1.45742 -4.498626,-1.457417 -0.816178,2.781923 c -0.884786,3.015756 -1.656213,5.857024 -1.615867,5.951479 0.04327,0.101369 1.907049,0.790815 2.753812,1.018712 0.44367,0.119413 2.023608,0.603978 3.510969,1.076809 z"
       style="fill:#000000;fill-opacity:1;stroke:#24df00;stroke-width:0.8;stroke-miterlimit:4;stroke-dasharray:none;stroke-dashoffset:0.74000001;stroke-opacity:1" />
    <path
       inkscape:connector-curvature="0"
       id="path9153"
       d="m 84.674574,34.554619 c -0.793838,-0.514167 -1.231993,-1.35815 -1.044899,-2.012728 0.128705,-0.450199 0.334792,-0.306467 0.760921,0.530663 0.448497,0.881062 0.790255,1.199107 1.28727,1.197996 0.65031,-0.0015 1.323838,-0.477738 1.351152,-0.955455 0.02457,-0.428888 -0.358662,-0.937453 -1.164183,-1.545095 -1.227011,-0.925581 -1.633381,-1.769787 -1.209556,-2.512742 0.256002,-0.448767 0.59643,-0.704913 1.094565,-0.823561 0.339005,-0.08074 0.542046,-0.0544 1.204087,0.156198 0.669029,0.212843 0.844013,0.30585 1.094613,0.581999 0.164043,0.180791 0.33342,0.487492 0.376379,0.681576 0.08316,0.375681 -0.0015,0.837457 -0.162788,0.887651 -0.135011,0.04204 -0.458529,-0.325322 -0.623432,-0.707696 -0.185864,-0.431144 -0.59808,-0.85472 -0.933774,-0.959457 -0.343505,-0.107186 -1.011635,0.06218 -1.222995,0.309981 -0.386379,0.453069 -0.09799,0.961001 1.083957,1.908962 0.460927,0.369677 0.940004,0.80031 1.06462,0.956958 0.623012,0.78315 0.290905,2.071556 -0.636719,2.470159 -0.709112,0.304712 -1.702857,0.233853 -2.319222,-0.165357 z"
       style="fill:#000000;fill-opacity:1;stroke:#24df00;stroke-width:0.8;stroke-miterlimit:4;stroke-dasharray:none;stroke-dashoffset:0.74000001;stroke-opacity:1" />
    <ellipse
       ry="14.828435"
       rx="14.089901"
       cy="31.781351"
       cx="86.162056"
       id="path870"
       style="fill:none;fill-opacity:1;stroke:#24df00;stroke-width:0.8;stroke-opacity:1;stroke-miterlimit:4;stroke-dasharray:none" />
  </g>
</svg>
